<svg id="Layer_1" data-name="Layer 1" xmlns="http://www.w3.org/2000/svg" viewBox="0 0 330.8 187.09"><defs><style>.cls-1{fill:#14c6ac;}.cls-2{fill:#24c5ac;}.cls-3{fill:#fdfefe;}</style></defs><title>taglistings_2</title><path class="cls-1" d="M339.75,276.82c-39.38,0-78.77-.07-118.15.09-5.34,0-6.65-1.07-6.63-4.63.18-24.06.11-48.13,0-72.19,0-2.5,1.37-3.78,4.37-5q80-31.42,159.95-62.94c12.93-5.08,13-5,13,5.38,0,15.84.09,31.68-.09,47.52,0,3.39,1.57,5.05,6.34,6.33,20.62,5.53,41,11.49,61.56,17.14,4.44,1.22,5.67,3.07,5.64,6.25-.19,18.89-.21,37.77,0,56.66.06,4.15-1.72,5.52-7.89,5.49-39.38-.17-78.76-.09-118.15-.09Zm20.81-47.56h0c0-7.3-.05-14.61,0-21.91,0-2-.6-3.28-3.8-4-6-1.42-11.85-3.17-17.63-5-9.67-3-19.91-5.05-29.54-8.23-3.87-1.28-8-4.11-13.36-1.88q-22.53,9.31-45.28,18.36c-3.3,1.31-4.64,2.88-4.62,5.44.13,12.93.21,25.87.11,38.8,0,3.09,1.36,4.29,6.09,4.24,15.16-.17,30.33,0,45.5-.06,13.12,0,12.27,1.44,12.32-8.56.06-10.59,0-10.59,15.21-10.64,10.61,0,10.53,0,10.69,7,.32,14.42-3.45,11.85,18.44,12.21,4.83.08,6-1.31,5.87-4.33C360.41,243.57,360.56,236.41,360.56,229.26Zm31.71,5.19h0c0,5.47.17,10.94-.06,16.41-.13,3.22,1.79,4.26,6.27,4.19,9.87-.15,19.75-.12,29.63,0,4.25.05,5.85-1.08,5.79-4-.15-7.6,0-15.19.08-22.79,0-1.83-.45-3.26-3.16-4-10.52-3-21-6.11-31.56-9-5.22-1.42-7-.37-7,3.74C392.23,224.12,392.27,229.28,392.27,234.45Zm-31.7-63.22c-.69-2.1,1.88-5.39-1.57-6.9-4-1.78-6.81,1.7-10.25,2.68a4.29,4.29,0,0,0-1.18.38c-2.9,2.06-9.7,2-9,5.63.57,3.1,6.39,3,10,4.2C362.54,181.63,360.48,179.7,360.57,171.24Z" transform="translate(-173.27 -128.91)"/><path class="cls-2" d="M473.26,307.76c0,6.44-4.69,8.5-17.28,7.62-7.2-.5-14.29-4.72-16-9.54-2.08-5.79,1.35-12.82,7.54-15.45,7.25-3.08,16.73-3.2,22.25-.15,1.27.7,4.4,1.2,2.16,3-1.59,1.26-2.29,3.71-6.55,2.23-4.8-1.67-10-1.5-13.88,1.55-3,2.36-3.24,5.15-1.48,8.11s5.27,3.94,9.31,4.37c1.48.16,3.25,0,4-1.12s-1-1.41-2-1.92c-1.92-1-1.53-2.44-1.13-3.77.52-1.72,2.41-1.15,4.18-1.2C473.3,301.21,473.29,301.15,473.26,307.76Z" transform="translate(-173.27 -128.91)"/><path class="cls-2" d="M408.21,300.39c0,4.76-.08,8.41,0,12.05.07,2.11-1,2.92-4.24,2.91s-4.23-.72-4.2-2.9c.11-7.31,0-14.61,0-21.92a2.38,2.38,0,0,1,1-2c1.45-.79,2.35.36,3.21.92,6.23,4,12.41,8,19.95,12.91,0-4.31.1-7.57,0-10.81-.09-2,.82-3.15,4-3.2s5,.7,5,3.11c0,7,.06,14,0,21,0,1,.39,2.32-1.44,2.78s-2.71-.75-3.75-1.46C421.53,309.54,415.4,305.32,408.21,300.39Z" transform="translate(-173.27 -128.91)"/><path class="cls-2" d="M270.55,307.59c.07,6.94-9.78,10.22-21.28,7.08-10.57-2.89-15.67-11-11.26-17.86,5.08-7.95,16-10.88,27-7.19,2.09.7,5.88,1,4.27,3.49-1.34,2.06-3.46,3.35-7.82,2-8-2.54-15.83,1.7-15,7.73.47,3.46,3.42,5.36,8.12,6.28,2.24.44,4.52.94,6-.57,1.87-1.95-1.78-1.45-2.55-2.29-2.06-2.23-.28-4.87,3.49-5.08C270.34,300.67,270.48,300.77,270.55,307.59Z" transform="translate(-173.27 -128.91)"/><path class="cls-2" d="M333.66,315.53c-3.09-.08-6.22-.19-9-1.24-2.29-.88-3.49-2-1.91-4.08,1.44-1.88,2.88-2.68,5.51-1.27a9.79,9.79,0,0,0,4.28,1c1.49.07,3.28.36,4.11-.81s.21-2.49-1.27-3.26c-1.91-1-4.08-1.75-6.15-2.59-6.78-2.73-9.49-6.68-7.12-10.43,2.62-4.15,9.67-6,16.86-4.15,2.51.66,6.76.39,6.81,3.32s-3.57,4-8,2.45c-2.23-.78-4.6-2-6.29-.05-2.08,2.34,1.48,3.09,3.45,4.07a38.28,38.28,0,0,0,4.19,1.31c6.37,2.24,9.3,6,7.84,9.92C345.62,313.39,340.59,315.59,333.66,315.53Z" transform="translate(-173.27 -128.91)"/><path class="cls-2" d="M231.65,315.29c-2.25,0-4.38.29-5-.72-3-5.07-9.37-2.46-14.27-3.07-2.68-.33-3.71,1.11-4.84,2.48-1.88,2.3-5.27,1.58-7.52.92s-.55-2.35.23-3.54c4.5-6.87,9-13.74,13.55-20.58a5.11,5.11,0,0,1,2.85-2.26c1.67-.3,2.34,1.07,3,2,4.73,7.13,9.35,14.29,14.17,21.4C235.36,314.24,235.79,315.76,231.65,315.29ZM213,305.82c2.71.08,5.77,1.08,6.85-.46s-1.6-3-3.22-5Z" transform="translate(-173.27 -128.91)"/><path class="cls-2" d="M490,315.44a27.4,27.4,0,0,1-8.92-1.25c-3.28-1.18-2.85-2.62-1.61-4.48s3.08-1.82,5.27-.81a8.39,8.39,0,0,0,2.34.8c2.11.28,4.79.93,6-.63,1.39-1.75-.42-3.18-2.64-4.11-1.87-.78-3.88-1.39-5.77-2.15-5-2-8-4.76-6.42-9,1.44-3.76,7.11-6.16,13.32-5.82a26.82,26.82,0,0,1,7.51,1.58c2.16.76,4.91,1.27,2.64,3.58-1.53,1.57-3,3.18-6.21,1.54a9.37,9.37,0,0,0-2.85-1.06c-1.9-.27-4.07-.62-5.18,1s.47,2.62,2.21,3.33,4,1.25,5.91,1.95c6,2.2,9.42,6.15,8.14,9.38C502.22,313.32,497.3,315.5,490,315.44Z" transform="translate(-173.27 -128.91)"/><path class="cls-2" d="M182.36,305.28c0-2.43.08-4.86,0-7.29s-.78-4.21-5.26-3.87c-3.33.25-3.82-1.4-3.81-3.29,0-2.1,1.8-2.5,4.29-2.49,5.92,0,11.84,0,17.76,0,2.63,0,4.83.21,4.84,2.62,0,2.15-.69,3.64-4.44,3.24-3.59-.38-4.52.86-4.4,3.13.23,4.4.29,8.8.23,13.2,0,2,1.23,4.59-4,4.88-5.57.3-5.34-2-5.13-4.61.15-1.82,0-3.64,0-5.47Z" transform="translate(-173.27 -128.91)"/><path class="cls-2" d="M358.38,304.87a57.51,57.51,0,0,1,0-5.94c.31-3-.22-5.09-5.76-4.82-3.28.16-2.78-1.81-2.87-3.31-.1-1.74,1-2.43,3.53-2.41q9.89.11,19.78,0c2.77,0,3.25,1,3.28,2.58s-.55,3.33-3.45,3c-6-.65-5.67,1.9-5.61,4.62.11,4.41,0,8.83.16,13.25.1,2.51-1.19,3.53-5,3.45s-4.15-1.64-4.12-3.62c0-2.28,0-4.56,0-6.83Z" transform="translate(-173.27 -128.91)"/><path class="cls-2" d="M277.92,301.88c0-3.19,0-6.38,0-9.57,0-2-.52-4,4-4,4.85,0,4.49,2,4.47,4.21,0,4.25.3,8.52-.12,12.75-.34,3.45,1.45,4.75,6.31,4.32,1.5-.13,3.07.14,4.59,0,3-.19,3.17,1.19,3.18,2.61s0,2.8-3.29,3.1c-17.93,1.64-19.22,1-19.2-11.19q0-1.14,0-2.28Zm1.35,5.52,1.17,0V292.22l-1.17,0Z" transform="translate(-173.27 -128.91)"/><path class="cls-2" d="M314.53,302.2c0,3.48-.17,7,.06,10.45.16,2.47-1.85,2.62-4.52,2.65s-4.79-.34-4.78-2.64c.05-7.27.12-14.54.11-21.81,0-2.47,2.32-2.44,4.9-2.48,3,0,4.4.71,4.31,2.91-.16,3.63,0,7.27,0,10.91Z" transform="translate(-173.27 -128.91)"/><path class="cls-1" d="M390,302c0,3.33-.11,6.67,0,10,.1,2.16-.55,3.35-4.26,3.35s-4.33-1.16-4.29-3.33c.11-6.82.15-13.64-.06-20.45-.08-2.53,1.64-3.07,4.73-3.13,3.37-.07,4,1.07,3.81,3.12-.24,3.47-.06,7-.06,10.44Z" transform="translate(-173.27 -128.91)"/><path class="cls-3" d="M213,305.82l3.63-5.44c1.62,2,4.35,3.36,3.22,5S215.71,305.9,213,305.82Z" transform="translate(-173.27 -128.91)"/><path class="cls-1" d="M279.27,307.4V292.23l1.17,0v15.16Z" transform="translate(-173.27 -128.91)"/></svg>